<?xml version="1.0" encoding="iso-8859-1"?>
<!-- Generator: Adobe Illustrator 19.0.0, SVG Export Plug-In . SVG Version: 6.00 Build 0)  -->
<svg version="1.1" id="Capa_1" xmlns="http://www.w3.org/2000/svg" xmlns:xlink="http://www.w3.org/1999/xlink" x="0px" y="0px"
	 viewBox="0 0 512 512" style="enable-background:new 0 0 512 512;" xml:space="preserve">
<g>
	<g>
		<path d="M334.007,224.333c5.522,0,10-4.477,10-10V70c0-16.542-13.458-30-30-30h-24v-8c0-17.645-14.355-32-32-32
			c-17.645,0-32,14.355-32,32v8h-22v-8c0-17.645-14.355-32-32-32c-17.645,0-32,14.355-32,32v8h-22v-8c0-17.645-14.355-32-32-32
			c-17.645,0-32,14.355-32,32v8h-24c-16.542,0-30,13.458-30,30v340.076c0,2.652,1.054,5.196,2.929,7.071l91.924,91.924
			c1.876,1.875,4.419,2.929,7.071,2.929h212.076c16.542,0,30-13.458,30-30v-19c0-5.522-4.478-10-10-10c-5.522,0-10,4.477-10,10v19
			c0,5.514-4.486,10-10,10H111.931v-61.924c0-16.542-13.458-30-30-30H20.007V138h304v76.333
			C324.007,219.856,328.485,224.333,334.007,224.333z M81.931,420.076c5.513,0,10,4.486,10,10v47.781l-57.782-57.781H81.931z
			 M246.007,32c0-6.617,5.383-12,12-12s12,5.383,12,12v8h-24V32z M160.007,32c0-6.617,5.383-12,12-12s12,5.383,12,12v8h-24V32z
			 M74.007,32c0-6.617,5.383-12,12-12s12,5.383,12,12v8h-24V32z M20.007,118V70c0-5.514,4.486-10,10-10h68v8c0,6.617-5.383,12-12,12
			c-5.522,0-10,4.477-10,10s4.478,10,10,10c17.645,0,32-14.355,32-32v-8h66v8c0,6.617-5.383,12-12,12c-5.522,0-10,4.477-10,10
			s4.478,10,10,10c17.645,0,32-14.355,32-32v-8h66v8c0,6.617-5.383,12-12,12c-5.522,0-10,4.477-10,10s4.478,10,10,10
			c17.645,0,32-14.355,32-32v-8h24c5.514,0,10,4.486,10,10v48H20.007z"/>
	</g>
</g>
<g>
	<g>
		<path d="M341.076,249.06c-1.859-1.87-4.439-2.93-7.069-2.93s-5.21,1.06-7.07,2.93c-1.86,1.86-2.93,4.44-2.93,7.07
			s1.069,5.2,2.93,7.07c1.86,1.86,4.44,2.93,7.07,2.93s5.21-1.07,7.069-2.93c1.86-1.86,2.931-4.44,2.931-7.07
			S342.937,250.92,341.076,249.06z"/>
	</g>
</g>
<g>
	<g>
		<path d="M270.179,230H73.835c-5.522,0-10,4.477-10,10s4.478,10,10,10h196.344c5.522,0,10-4.477,10-10S275.701,230,270.179,230z"/>
	</g>
</g>
<g>
	<g>
		<path d="M270.179,286H73.835c-5.522,0-10,4.477-10,10s4.478,10,10,10h196.344c5.522,0,10-4.477,10-10S275.701,286,270.179,286z"/>
	</g>
</g>
<g>
	<g>
		<path d="M270.179,342H73.835c-5.522,0-10,4.477-10,10s4.478,10,10,10h196.344c5.522,0,10-4.477,10-10S275.701,342,270.179,342z"/>
	</g>
</g>
<g>
	<g>
		<path d="M270.179,174H117.674c-5.522,0-10,4.477-10,10s4.478,10,10,10h152.505c5.522,0,10-4.477,10-10S275.701,174,270.179,174z"
			/>
	</g>
</g>
<g>
	<g>
		<path d="M80.906,176.93c-1.859-1.86-4.439-2.93-7.069-2.93c-2.641,0-5.21,1.07-7.07,2.93c-1.86,1.86-2.93,4.44-2.93,7.07
			s1.069,5.21,2.93,7.07c1.861,1.86,4.429,2.93,7.07,2.93c2.63,0,5.21-1.07,7.069-2.93c1.86-1.86,2.931-4.44,2.931-7.07
			S82.767,178.79,80.906,176.93z"/>
	</g>
</g>
<g>
	<g>
		<path d="M491.002,130.32c-9.715-5.609-21.033-7.099-31.871-4.196c-10.836,2.904-19.894,9.854-25.502,19.569L307.787,363.656
			c-0.689,1.195-1.125,2.52-1.278,3.891l-8.858,79.344c-0.44,3.948,1.498,7.783,4.938,9.77c1.553,0.896,3.278,1.34,4.999,1.34
			c2.092,0,4.176-0.655,5.931-1.948l64.284-47.344c1.111-0.818,2.041-1.857,2.73-3.052l125.841-217.963
			C517.954,167.638,511.058,141.9,491.002,130.32z M320.063,426.394l4.626-41.432l28.942,16.71L320.063,426.394z M368.213,386.996
			l-38.105-22l100.984-174.91l38.105,22L368.213,386.996z M489.054,177.693l-9.857,17.073l-38.105-22l9.857-17.073
			c2.938-5.089,7.682-8.729,13.358-10.25c5.678-1.522,11.605-0.74,16.694,2.198s8.729,7.682,10.25,13.358
			C492.772,166.675,491.992,172.604,489.054,177.693z"/>
	</g>
</g>
<g>
</g>
<g>
</g>
<g>
</g>
<g>
</g>
<g>
</g>
<g>
</g>
<g>
</g>
<g>
</g>
<g>
</g>
<g>
</g>
<g>
</g>
<g>
</g>
<g>
</g>
<g>
</g>
<g>
</g>
</svg>
